<?xml version="1.0"?>
<svg xmlns="http://www.w3.org/2000/svg" height="512px" viewBox="0 0 368 368" width="512px"><g><path d="m368 103.996094c0-2.929688-1.601562-5.625-4.167969-7.023438l-176-96c-2.390625-1.296875-5.273437-1.296875-7.664062 0l-176 96c-2.566407 1.398438-4.167969 4.09375-4.167969 7.023438 0 2.929687 1.601562 5.625 4.167969 7.023437l60.472656 32.984375-60.464844 32.96875c-2.574219 1.398438-4.175781 4.09375-4.175781 7.023438 0 2.929687 1.601562 5.625 4.167969 7.023437l60.480469 32.976563-60.480469 32.976562c-2.566407 1.398438-4.167969 4.09375-4.167969 7.023438 0 2.929687 1.601562 5.625 4.167969 7.023437l176 96c1.191406.648438 2.511719.976563 3.832031.976563s2.640625-.328125 3.832031-.976563l176-96c2.566407-1.398437 4.167969-4.09375 4.167969-7.023437 0-2.929688-1.601562-5.625-4.167969-7.023438l-60.480469-32.976562 60.480469-32.976563c2.566407-1.398437 4.167969-4.09375 4.167969-7.023437 0-2.929688-1.601562-5.625-4.167969-7.023438l-60.464843-32.96875 60.464843-32.984375c2.566407-1.398437 4.167969-4.09375 4.167969-7.023437zm-184 246.886718-159.296875-86.886718 56.65625-30.886719 98.808594 53.910156c2.390625 1.296875 5.273437 1.296875 7.664062 0l98.808594-53.910156 56.648437 30.886719zm159.289062-166.886718-60.480468 32.976562-98.808594 53.910156-98.808594-53.910156c-.007812 0-.007812 0-.015625-.007812l-60.464843-32.96875 56.632812-30.878906 98.824219 53.902343c1.191406.648438 2.511719.976563 3.832031.976563s2.640625-.328125 3.832031-.976563l98.824219-53.902343zm-159.289062 6.886718-159.296875-86.886718 159.296875-86.886719 159.296875 86.886719zm0 0" data-original="#000000" class="active-path" data-old_color="#000000" fill="#2A2C2D"/></g> </svg>
